<?xml version="1.0" encoding="UTF-8"?>
<svg version="1.1" xmlns="http://www.w3.org/2000/svg" width="135" height="225">
<path d="M0 0 C6.57701015 0.75397824 10.00056364 5.04547436 14 10 C18.33001824 17.27811576 19.07104208 24.34247932 17.515625 32.55859375 C14.96379834 41.73735803 9.78876296 49.71498197 4.97265625 57.8515625 C-0.61127356 66.42460273 -0.61127356 66.42460273 -3 76 C-1.37511785 77.30566182 -1.37511785 77.30566182 0.8046875 78.3828125 C1.61188232 78.82391357 2.41907715 79.26501465 3.25073242 79.71948242 C4.11674072 80.18330322 4.98274902 80.64712402 5.875 81.125 C13.51856355 85.35784448 19.91480126 89.66451031 26 96 C26.42667969 95.5153125 26.85335937 95.030625 27.29296875 94.53125 C35.05291375 86.21130897 44.78116115 80.80886534 55 76 C52.7538989 68.15921485 49.1569082 61.58933265 45.0625 54.5625 C32.15758935 32.35747721 32.15758935 32.35747721 34 19 C36.25776957 11.40173701 41.49584789 4.52614521 48 0 C50.55824939 0.0815952 51.62496337 0.6846707 53.5703125 2.3203125 C69.78228156 21.13923136 81.35876169 42.62405652 80.17480469 67.97949219 C79.05138327 80.96473747 71.80911908 93.19682304 62.44921875 101.96875 C49.65573976 112.57897181 36.53775851 117.01597151 20 116 C3.53809816 113.5442422 -9.0122687 104.70993395 -19.4375 92.125 C-27.85832102 80.09169658 -29.46512219 65.23030277 -28 51 C-24.57845046 33.17628136 -14.13887188 18.60108465 -3.20166016 4.5871582 C-2.07610616 3.10052136 -1.03432786 1.55149179 0 0 Z M2 9 C-8.10027559 22.24626307 -19.84347939 38.62964411 -19.42578125 55.953125 C-18.74277005 60.84072805 -16.84166773 64.98164169 -14 69 C-13.01 69.66 -12.02 70.32 -11 71 C-6.64982495 63.3427891 -2.31724081 55.67582736 2 48 C2.41926758 47.25669434 2.83853516 46.51338867 3.27050781 45.74755859 C4.25108485 44.00298183 5.21997029 42.25184636 6.1875 40.5 C6.69667969 39.5821875 7.20585938 38.664375 7.73046875 37.71875 C10.77049717 31.20841222 11.52942671 25.92665982 10 19 C8.19119039 14.20665454 6.00978193 12.07285576 2 9 Z M48 10 C43.85524742 14.57352009 41.03159616 19.11999164 40.98046875 25.3984375 C43.03862531 41.5246995 55.00551803 57.2699979 63 71 C68.69938623 65.66440438 70.96385598 60.59383345 71.5 52.8125 C70.90897087 38.62780088 60.77852205 20.97656807 51 11 C50.01 10.67 49.02 10.34 48 10 Z M-18 76 C-17.34 77.98 -16.68 79.96 -16 82 C-15.34 82 -14.68 82 -14 82 C-14.27617533 80.05925139 -14.27617533 80.05925139 -15 78 C-15.99 77.34 -16.98 76.68 -18 76 Z M69 76 C67.35444301 77.22809091 67.35444301 77.22809091 66 79 C66.22757731 81.16299211 66.22757731 81.16299211 67 83 C68.60907108 80.62387135 68.60907108 80.62387135 70 78 C69.67 77.34 69.34 76.68 69 76 Z M-6 84 C-5.86445698 91.45486588 -3.29779626 95.79165996 2 101 C7.7740226 105.39722238 13.89866186 107.00670218 21 108 C20.87023791 102.80951658 18.97260169 99.85454964 15.57421875 96.1640625 C9.46584102 91.02894677 1.55827231 86.5194241 -6 84 Z M49.375 87.625 C48.74489014 87.98891846 48.11478027 88.35283691 47.46557617 88.7277832 C37.54321479 94.18272859 37.54321479 94.18272859 31 103 C30.74803871 105.70953551 30.74803871 105.70953551 31 108 C40.32985543 107.49109879 47.18267932 103.62215822 53.55859375 96.83203125 C56.72828744 92.80334198 58 89.18678028 58 84 C54.71780414 84 52.15306144 86.01817071 49.375 87.625 Z " fill="#2C0453" transform="translate(44,39)"/>
<path d="M0 0 C12.81198243 6.23638249 23.30770485 30.18788338 27.79296875 42.87109375 C30.32230011 51.35909531 31.98183231 62.59383356 28.66796875 71.05859375 C26.98145146 73.82930072 25.69536383 75.3054656 22.91796875 76.93359375 C22.58796875 74.95359375 22.25796875 72.97359375 21.91796875 70.93359375 C20.92796875 71.26359375 19.93796875 71.59359375 18.91796875 71.93359375 C18.57454426 73.26436364 18.24177001 74.59791354 17.91796875 75.93359375 C16.92796875 76.59359375 15.93796875 77.25359375 14.91796875 77.93359375 C14.33448123 80.58926655 14.33448123 80.58926655 14.23046875 83.55859375 C14.16472656 84.56148438 14.09898438 85.564375 14.03125 86.59765625 C13.99386719 87.36851563 13.95648438 88.139375 13.91796875 88.93359375 C11.93796875 89.42859375 11.93796875 89.42859375 9.91796875 89.93359375 C8.92796875 86.96359375 8.92796875 86.96359375 7.91796875 83.93359375 C7.30308594 84.02898437 6.68820313 84.124375 6.0546875 84.22265625 C5.24644531 84.33351563 4.43820313 84.444375 3.60546875 84.55859375 C2.40470703 84.73261719 2.40470703 84.73261719 1.1796875 84.91015625 C-1.08203125 84.93359375 -1.08203125 84.93359375 -4.08203125 82.93359375 C-3.42203125 82.93359375 -2.76203125 82.93359375 -2.08203125 82.93359375 C-2.08203125 82.27359375 -2.08203125 81.61359375 -2.08203125 80.93359375 C3.66796875 77.93359375 3.66796875 77.93359375 5.91796875 77.93359375 C3.20444217 69.45698336 -0.60315226 62.04047126 -5.08203125 54.37109375 C-17.92542407 32.29819166 -17.92542407 32.29819166 -16.08203125 18.93359375 C-14.2323151 12.70858748 -7.43610064 -0.23717394 0 0 Z M-2.08203125 9.93359375 C-6.22678383 14.50711384 -9.05043509 19.05358539 -9.1015625 25.33203125 C-7.04340594 41.45829325 4.92348678 57.20359165 12.91796875 70.93359375 C18.61735498 65.59799813 20.88182473 60.5274272 21.41796875 52.74609375 C20.82693962 38.56139463 10.6964908 20.91016182 0.91796875 10.93359375 C-0.07203125 10.60359375 -1.06203125 10.27359375 -2.08203125 9.93359375 Z " fill="#8414B4" transform="translate(94.08203125,39.06640625)"/>
<path d="M0 0 C6.57701015 0.75397824 10.00056364 5.04547436 14 10 C18.33001824 17.27811576 19.07104208 24.34247932 17.515625 32.55859375 C14.96379834 41.73735803 9.78876296 49.71498197 4.97265625 57.8515625 C-0.79232212 66.70346252 -0.79232212 66.70346252 -2.8125 76.625 C-2.544375 77.40875 -2.27625 78.1925 -2 79 C-3.32 78.01 -4.64 77.02 -6 76 C-5.67 74.68 -5.34 73.36 -5 72 C-5.99 72 -6.98 72 -8 72 C-8.33 72.66 -8.66 73.32 -9 74 C-9.99 74 -10.98 74 -12 74 C-12 73.34 -12 72.68 -12 72 C-14.97 71.34 -17.94 70.68 -21 70 C-20.67 72.31 -20.34 74.62 -20 77 C-20.99 76.67 -21.98 76.34 -23 76 C-23.66 76 -24.32 76 -25 76 C-25.33 73.69 -25.66 71.38 -26 69 C-26.66 69 -27.32 69 -28 69 C-29.65456089 43.07854606 -18.76335995 24.5264738 -3.20166016 4.5871582 C-2.07610616 3.10052136 -1.03432786 1.55149179 0 0 Z M2 9 C-8.10027559 22.24626307 -19.84347939 38.62964411 -19.42578125 55.953125 C-18.74277005 60.84072805 -16.84166773 64.98164169 -14 69 C-13.01 69.66 -12.02 70.32 -11 71 C-6.64982495 63.3427891 -2.31724081 55.67582736 2 48 C2.41926758 47.25669434 2.83853516 46.51338867 3.27050781 45.74755859 C4.25108485 44.00298183 5.21997029 42.25184636 6.1875 40.5 C6.69667969 39.5821875 7.20585938 38.664375 7.73046875 37.71875 C10.77049717 31.20841222 11.52942671 25.92665982 10 19 C8.19119039 14.20665454 6.00978193 12.07285576 2 9 Z " fill="#A737A3" transform="translate(44,39)"/>
<path d="M0 0 C0.763125 0.20625 1.52625 0.4125 2.3125 0.625 C1.69750795 5.47870648 -0.38542484 9.29343373 -2.625 13.5625 C-7.16974049 22.26986505 -9.95385002 29.60704293 -8.6875 39.625 C-6.48489128 46.15208228 -6.48489128 46.15208228 -1.6875 50.625 C0.9525 45.675 3.5925 40.725 6.3125 35.625 C7.62473496 39.56170488 6.55546256 41.74988144 5.3125 45.625 C8.73828949 42.44960444 8.73828949 42.44960444 11.3125 38.625 C11.9725 38.625 12.6325 38.625 13.3125 38.625 C11.98933952 42.10994381 10.42311642 45.3011599 8.625 48.5625 C6.87361372 51.98845737 6.29654778 53.3165905 6.5 57.25 C6.768125 58.03375 7.03625 58.8175 7.3125 59.625 C5.9925 58.635 4.6725 57.645 3.3125 56.625 C3.6425 55.305 3.9725 53.985 4.3125 52.625 C3.3225 52.625 2.3325 52.625 1.3125 52.625 C0.9825 53.285 0.6525 53.945 0.3125 54.625 C-0.6775 54.625 -1.6675 54.625 -2.6875 54.625 C-2.6875 53.965 -2.6875 53.305 -2.6875 52.625 C-5.6575 51.965 -8.6275 51.305 -11.6875 50.625 C-11.3575 52.935 -11.0275 55.245 -10.6875 57.625 C-11.6775 57.295 -12.6675 56.965 -13.6875 56.625 C-14.3475 56.625 -15.0075 56.625 -15.6875 56.625 C-16.0175 54.315 -16.3475 52.005 -16.6875 49.625 C-17.3475 49.625 -18.0075 49.625 -18.6875 49.625 C-19.80656313 32.09301097 -16.30024578 16.01516377 -5.6875 1.625 C-2.6875 -0.375 -2.6875 -0.375 0 0 Z " fill="#7E20A1" transform="translate(34.6875,58.375)"/>
<path d="M0 0 C2.06044258 3.09066386 2.24551787 4.1474738 2.625 7.6875 C4.02794761 15.86957611 8.07844983 22.79571102 12 30 C12.47840332 30.88187988 12.95680664 31.76375977 13.44970703 32.67236328 C16.60077756 38.46633234 19.78613696 44.24064367 23 50 C26.03840179 47.26292732 27.59622686 45.17282869 28.75 41.25 C28.99234375 40.45078125 29.2346875 39.6515625 29.484375 38.828125 C29.65453125 38.22484375 29.8246875 37.6215625 30 37 C30.66 37 31.32 37 32 37 C31.74476126 38.62752231 31.47025506 40.25203196 31.1875 41.875 C31.03667969 42.77992187 30.88585937 43.68484375 30.73046875 44.6171875 C30 47 30 47 27 49 C26.27617533 51.05925139 26.27617533 51.05925139 26 53 C25.34 53 24.68 53 24 53 C24 53.66 24 54.32 24 55 C22.68 55.66 21.36 56.32 20 57 C20 56.34 20 55.68 20 55 C19.34 55 18.68 55 18 55 C18.33 56.65 18.66 58.3 19 60 C21.475 59.505 21.475 59.505 24 59 C24 62.3 24 65.6 24 69 C22.02 69.495 22.02 69.495 20 70 C19.01 67.03 19.01 67.03 18 64 C17.38511719 64.09539062 16.77023438 64.19078125 16.13671875 64.2890625 C15.32847656 64.39992188 14.52023438 64.51078125 13.6875 64.625 C12.48673828 64.79902344 12.48673828 64.79902344 11.26171875 64.9765625 C9 65 9 65 6 63 C6.66 63 7.32 63 8 63 C8 62.34 8 61.68 8 61 C13.75 58 13.75 58 16 58 C13.28647342 49.52338961 9.47887899 42.10687751 5 34.4375 C-6.68490264 14.35560143 -6.68490264 14.35560143 -6.25 5.875 C-6.21390625 4.94429687 -6.1778125 4.01359375 -6.140625 3.0546875 C-6.09421875 2.37664063 -6.0478125 1.69859375 -6 1 C-5.67 1.66 -5.34 2.32 -5 3 C-3.02463255 2.65213292 -3.02463255 2.65213292 -1 2 C-0.67 1.34 -0.34 0.68 0 0 Z " fill="#6B09AF" transform="translate(84,59)"/>
<path d="M0 0 C0.66 0 1.32 0 2 0 C2.268125 0.78375 2.53625 1.5675 2.8125 2.375 C3.84814432 5.28114923 3.84814432 5.28114923 7 7 C6.67 6.01 6.34 5.02 6 4 C6.33 3.01 6.66 2.02 7 1 C13.75 1.875 13.75 1.875 16 3 C16 3.66 16 4.32 16 5 C16.99 5 17.98 5 19 5 C19.33 4.01 19.66 3.02 20 2 C20.99 2.33 21.98 2.66 23 3 C23.33 4.65 23.66 6.3 24 8 C24.66386719 8.07476562 25.32773437 8.14953125 26.01171875 8.2265625 C30.05701856 9.27358127 33.25647916 11.22437304 36.8125 13.375 C37.50537109 13.77460937 38.19824219 14.17421875 38.91210938 14.5859375 C40.66421109 15.63547232 42.34015226 16.80992049 44 18 C44 18.99 44 19.98 44 21 C44.66 21 45.32 21 46 21 C46 21.99 46 22.98 46 24 C47.32 24.33 48.64 24.66 50 25 C50 26.98 50 28.96 50 31 C47.88608838 30.05238445 46.2618526 29.28679094 44.6875 27.5625 C42.74115644 25.76033003 40.75267559 24.99837055 38.30859375 24.03125 C33.98851587 22.10146902 29.90794576 19.65789334 25.79296875 17.328125 C24.87128906 16.88984375 23.94960938 16.4515625 23 16 C22.34 16.33 21.68 16.66 21 17 C21.66 20.3 22.32 23.6 23 27 C19.29280853 28.18314622 17.26982432 28.6121981 13.70703125 26.89453125 C5.68020584 21.23407313 2.62974619 13.70445758 0.6875 4.3125 C0.44421175 2.87732251 0.20935946 1.44051804 0 0 Z M10 7 C10.66 8.98 11.32 10.96 12 13 C12.66 13 13.32 13 14 13 C13.72382467 11.05925139 13.72382467 11.05925139 13 9 C12.01 8.34 11.02 7.68 10 7 Z " fill="#7B0CB0" transform="translate(16,108)"/>
<path d="M0 0 C0.66 0 1.32 0 2 0 C0.38611075 14.29444767 -7.17669049 26.51458195 -18.03515625 35.7265625 C-20.87741373 37.56866178 -23.67692835 37.68047388 -27 38 C-27 38.66 -27 39.32 -27 40 C-28.98 40.495 -28.98 40.495 -31 41 C-31 40.34 -31 39.68 -31 39 C-31.99 38.67 -32.98 38.34 -34 38 C-33.45730469 37.64808594 -32.91460937 37.29617187 -32.35546875 36.93359375 C-27.34619259 33.47674192 -24.97563678 30.92691035 -23 25 C-22.4493242 23.68249529 -21.88706361 22.369764 -21.3125 21.0625 C-20.879375 20.051875 -20.44625 19.04125 -20 18 C-19.54625 18.495 -19.0925 18.99 -18.625 19.5 C-17.12364481 21.22609337 -17.12364481 21.22609337 -15 21 C-14.97421875 20.22914062 -14.9484375 19.45828125 -14.921875 18.6640625 C-14.86515625 17.66117188 -14.8084375 16.65828125 -14.75 15.625 C-14.68039063 14.12839844 -14.68039063 14.12839844 -14.609375 12.6015625 C-14.40828125 11.74304688 -14.2071875 10.88453125 -14 10 C-11.984375 8.7734375 -11.984375 8.7734375 -10 8 C-9.835 7.34 -9.67 6.68 -9.5 6 C-9 4 -9 4 -6.9375 2.75 C-6.298125 2.5025 -5.65875 2.255 -5 2 C-5 3.65 -5 5.3 -5 7 C-4.34 7 -3.68 7 -3 7 C-1.79371992 4.66785852 -0.8345262 2.50357861 0 0 Z M-9 8 C-10.64555699 9.22809091 -10.64555699 9.22809091 -12 11 C-11.77242269 13.16299211 -11.77242269 13.16299211 -11 15 C-9.39092892 12.62387135 -9.39092892 12.62387135 -8 10 C-8.33 9.34 -8.66 8.68 -9 8 Z " fill="#520686" transform="translate(122,107)"/>
<path d="M0 0 C3.93348287 1.92676702 6.27100144 5.55361031 8.921875 8.94140625 C9.32760742 9.45413086 9.73333984 9.96685547 10.15136719 10.49511719 C11.45642286 12.16657339 12.72393352 13.86111741 13.984375 15.56640625 C14.40291748 16.10426758 14.82145996 16.64212891 15.25268555 17.19628906 C16.39453125 18.79296875 16.39453125 18.79296875 17.921875 21.94140625 C17.16796875 25.33984375 17.16796875 25.33984375 15.921875 27.94140625 C9.82971984 26.39384626 7.76219587 21.79448118 4.58398438 16.8203125 C3.20580143 14.69655589 3.20580143 14.69655589 0.921875 11.94140625 C-0.398125 11.94140625 -1.718125 11.94140625 -3.078125 11.94140625 C-3.35785156 12.65167969 -3.63757813 13.36195312 -3.92578125 14.09375 C-5.147438 16.89452576 -6.34418935 19.42204926 -8.078125 21.94140625 C-11.890625 23.06640625 -11.890625 23.06640625 -15.078125 22.94140625 C-15.96788207 20.48049588 -16.1611936 19.21782419 -15.3984375 16.6796875 C-12.7007497 11.20496814 -7.03785703 -0.19843582 0 0 Z " fill="#E5A6D0" transform="translate(94.078125,39.05859375)"/>
<path d="M0 0 C6.52943307 0.71650416 10.02182331 5.10439092 14 10 C15.67196371 13.177348 16.17913556 15.83561883 15.625 19.4375 C15.315625 20.2109375 15.315625 20.2109375 15 21 C14.34 20.67 13.68 20.34 13 20 C12.67 20.66 12.34 21.32 12 22 C11.34 22 10.68 22 10 22 C9.75765625 21.38511719 9.5153125 20.77023438 9.265625 20.13671875 C8.93046875 19.32847656 8.5953125 18.52023438 8.25 17.6875 C7.92515625 16.88699219 7.6003125 16.08648437 7.265625 15.26171875 C5.93862695 12.53195838 5.93862695 12.53195838 2 10 C-0.64 13.63 -3.28 17.26 -6 21 C-7.98 20.67 -9.96 20.34 -12 20 C-12.66 20.33 -13.32 20.66 -14 21 C-12.50548809 16.46551499 -9.94362819 13.05874042 -7 9.375 C-3.37506013 4.78052804 -3.37506013 4.78052804 0 0 Z " fill="#EAB3D8" transform="translate(44,39)"/>
<path d="M0 0 C0.763125 0.20625 1.52625 0.4125 2.3125 0.625 C1.73214911 5.68806118 -0.64086965 9.61654253 -3.0625 14 C-8.62211982 23.53263947 -8.62211982 23.53263947 -11.375 34.0625 C-11.478125 35.238125 -11.58125 36.41375 -11.6875 37.625 C-13.3375 37.625 -14.9875 37.625 -16.6875 37.625 C-16.6875 35.975 -16.6875 34.325 -16.6875 32.625 C-17.3475 32.295 -18.0075 31.965 -18.6875 31.625 C-8.72528075 -1.21748104 -8.72528075 -1.21748104 0 0 Z " fill="#CC44A7" transform="translate(34.6875,58.375)"/>
<path d="M0 0 C2.05586437 3.08379655 2.34105207 4.43564643 2.8125 8 C3.68927742 13.30976408 5.48738095 17.59953328 7.82421875 22.41796875 C9.82503196 26.81178116 11 31.1428976 11 36 C9.1875 35.8125 9.1875 35.8125 7 35 C5.94228261 33.36935236 4.94726954 31.69719127 4 30 C3.36449219 29.39929688 2.72898437 28.79859375 2.07421875 28.1796875 C-0.25190332 25.73528803 -1.35539378 23.52613746 -2.6875 20.4375 C-3.10386719 19.48746094 -3.52023438 18.53742188 -3.94921875 17.55859375 C-5.59128817 13.56024629 -6.11313534 10.61650396 -6.0625 6.3125 C-6.05347656 5.31863281 -6.04445313 4.32476562 -6.03515625 3.30078125 C-6.02355469 2.54152344 -6.01195313 1.78226563 -6 1 C-5.67 1.66 -5.34 2.32 -5 3 C-3.02463255 2.65213292 -3.02463255 2.65213292 -1 2 C-0.67 1.34 -0.34 0.68 0 0 Z " fill="#C13DA5" transform="translate(84,59)"/>
<path d="M0 0 C0.495 1.485 0.495 1.485 1 3 C-1.64 4.98 -4.28 6.96 -7 9 C-6.34 9.33 -5.68 9.66 -5 10 C-5 10.66 -5 11.32 -5 12 C-3.68 11.67 -2.36 11.34 -1 11 C-1 10.34 -1 9.68 -1 9 C0.98 8.67 2.96 8.34 5 8 C2.65625145 10.62714298 0.28174307 12.03210328 -2.875 13.5625 C-4.13957031 14.18318359 -4.13957031 14.18318359 -5.4296875 14.81640625 C-17.242617 20.25609871 -29.4857475 20.16387422 -42 17 C-42 16.67 -42 16.34 -42 16 C-40.87980469 15.93941406 -39.75960937 15.87882813 -38.60546875 15.81640625 C-37.13280016 15.73198576 -35.66014456 15.64733851 -34.1875 15.5625 C-33.44951172 15.52318359 -32.71152344 15.48386719 -31.95117188 15.44335938 C-28.76928658 15.25618965 -26.03837622 15.01279207 -23 14 C-23 14.66 -23 15.32 -23 16 C-22.01 16 -21.02 16 -20 16 C-19.67 15.01 -19.34 14.02 -19 13 C-19.66 12.34 -20.32 11.68 -21 11 C-20.3709375 10.84144531 -19.741875 10.68289062 -19.09375 10.51953125 C-11.61040611 8.47964383 -5.39864439 5.67930786 0 0 Z " fill="#190339" transform="translate(96,136)"/>
<path d="M0 0 C6.03523728 3.27408894 12.05469543 6.56493514 18 10 C18 10.99 18 11.98 18 13 C18.66 13 19.32 13 20 13 C20 13.99 20 14.98 20 16 C21.32 16.33 22.64 16.66 24 17 C24 18.98 24 20.96 24 23 C21.88608838 22.05238445 20.2618526 21.28679094 18.6875 19.5625 C16.72729626 17.74749654 14.70715545 17.00702857 12.25 16.02734375 C7.29167446 13.76338608 2.67047583 10.79921786 -2 8 C-0.68 7.67 0.64 7.34 2 7 C2 5.68 2 4.36 2 3 C1.34 2.67 0.68 2.34 0 2 C0 1.34 0 0.68 0 0 Z " fill="#500D85" transform="translate(42,116)"/>
<path d="M0 0 C0.66 0 1.32 0 2 0 C6.9450659 8.84430847 11.14820979 16.76159472 9.6875 27.2421875 C9.460625 27.82226562 9.23375 28.40234375 9 29 C8.01 29.33 7.02 29.66 6 30 C5.87625 28.96875 5.7525 27.9375 5.625 26.875 C5.06110186 23.37883154 4.21317941 20.31602373 3 17 C2.34 17 1.68 17 1 17 C-0.03033882 14.87959258 -1.04902854 12.75352092 -2.0625 10.625 C-2.63097656 9.44164063 -3.19945313 8.25828125 -3.78515625 7.0390625 C-4.18605469 6.03617187 -4.58695312 5.03328125 -5 4 C-4.67 3.34 -4.34 2.68 -4 2 C-3.01 2 -2.02 2 -1 2 C-0.67 1.34 -0.34 0.68 0 0 Z " fill="#D23AB5" transform="translate(111,63)"/>
<path d="M0 0 C0.33 0.66 0.66 1.32 1 2 C-4.75 5 -4.75 5 -7 5 C-6.67 5.99 -6.34 6.98 -6 8 C-3.69 8 -1.38 8 1 8 C-4.80928812 14.46331394 -13.86950292 17.60083693 -22 20 C-22 20.66 -22 21.32 -22 22 C-23.32 21.67 -24.64 21.34 -26 21 C-25.35330586 19.65686601 -24.68096422 18.32608822 -24 17 C-23.608125 16.21109375 -23.21625 15.4221875 -22.8125 14.609375 C-20.55384104 11.35768495 -18.21427412 9.94346997 -14.8125 7.9375 C-13.94782104 7.42316406 -13.94782104 7.42316406 -13.06567383 6.8984375 C-8.80322597 4.3895019 -4.47340417 2.10513137 0 0 Z " fill="#4E137A" transform="translate(99,115)"/>
<path d="M0 0 C1.65 0.33 3.3 0.66 5 1 C5 4.3 5 7.6 5 11 C6.65 11 8.3 11 10 11 C10.66 13.97 11.32 16.94 12 20 C8.24324331 21.1989649 6.25520703 21.63392167 2.671875 19.82421875 C-2.75896864 15.91293235 -6.41028994 11.61481049 -8 5 C-7.67 4.34 -7.34 3.68 -7 3 C-5.68 5.31 -4.36 7.62 -3 10 C-2.01 9.67 -1.02 9.34 0 9 C-0.33 6.69 -0.66 4.38 -1 2 C0.32 3.32 1.64 4.64 3 6 C1.515 3.03 1.515 3.03 0 0 Z " fill="#52098A" transform="translate(27,115)"/>
<path d="M0 0 C3.98381075 2.16264012 6.88983545 4.71211176 10 8 C11.98 6.35 13.96 4.7 16 3 C15 5 14 7 13 9 C14.32 9.33 15.64 9.66 17 10 C17 9.34 17 8.68 17 8 C18.98 7.34 20.96 6.68 23 6 C21.34290949 8.00859456 19.6755657 10.00687072 18 12 C17.41089844 12.70769531 16.82179688 13.41539062 16.21484375 14.14453125 C15.60769531 14.85996094 15.00054687 15.57539063 14.375 16.3125 C13.80523437 16.98925781 13.23546875 17.66601562 12.6484375 18.36328125 C11 20 11 20 8 21 C8 20.01 8 19.02 8 18 C7.34 18 6.68 18 6 18 C5.91878906 17.41734375 5.83757812 16.8346875 5.75390625 16.234375 C4.77027513 13.31915739 3.29381519 12.19489508 0.9375 10.25 C0.20402344 9.63640625 -0.52945313 9.0228125 -1.28515625 8.390625 C-1.85105469 7.93171875 -2.41695312 7.4728125 -3 7 C1.38968456 7 2.76905739 9.12805101 6 12 C6 10.02 6 8.04 6 6 C4.68 5.67 3.36 5.34 2 5 C2 4.01 2 3.02 2 2 C1.34 2 0.68 2 0 2 C0 1.34 0 0.68 0 0 Z " fill="#390666" transform="translate(60,127)"/>
<path d="M0 0 C3.11112632 3.11112632 3.16643864 6.34944358 3.25 10.625 C3.18748829 15.88379764 2.53455192 21.31864477 0 26 C-1.984375 26.65234375 -1.984375 26.65234375 -4 27 C-4.66 27.66 -5.32 28.32 -6 29 C-6.33 28.34 -6.66 27.68 -7 27 C-6.67 26.34 -6.34 25.68 -6 25 C-6.66 25 -7.32 25 -8 25 C-7.38251126 22.22729571 -6.75637544 19.45704402 -6.125 16.6875 C-5.95097656 15.90181641 -5.77695312 15.11613281 -5.59765625 14.30664062 C-5.42363281 13.54931641 -5.24960937 12.79199219 -5.0703125 12.01171875 C-4.83465576 10.96697388 -4.83465576 10.96697388 -4.59423828 9.90112305 C-4 8 -4 8 -2 5 C-1.34 5.33 -0.68 5.66 0 6 C0 4.02 0 2.04 0 0 Z " fill="#CC53AA" transform="translate(59,53)"/>
<path d="M0 0 C6.29108249 5.84960301 8.59963088 12.5922484 9 21 C9.66 21 10.32 21 11 21 C11.33 22.65 11.66 24.3 12 26 C11.01 26.33 10.02 26.66 9 27 C8.68546875 26.46890625 8.3709375 25.9378125 8.046875 25.390625 C7.40492187 24.33101562 7.40492187 24.33101562 6.75 23.25 C6.33234375 22.55390625 5.9146875 21.8578125 5.484375 21.140625 C4.05047363 18.92726234 4.05047363 18.92726234 2.03515625 17.0859375 C-0.29247874 14.70022332 -1.72385563 12.29999782 -3.3125 9.375 C-3.84488281 8.41335937 -4.37726563 7.45171875 -4.92578125 6.4609375 C-5.28027344 5.64882812 -5.63476562 4.83671875 -6 4 C-5.67 3.34 -5.34 2.68 -5 2 C-3.68 3.98 -2.36 5.96 -1 8 C0.42944945 5.64561267 1.08661261 4.51967567 0.625 1.75 C0.41875 1.1725 0.2125 0.595 0 0 Z " fill="#932F99" transform="translate(93,86)"/>
<path d="M0 0 C0.66 0 1.32 0 2 0 C0.96232949 6.06732052 -0.33961901 11.4373852 -3 17 C-3.99 17 -4.98 17 -6 17 C-6.309375 17.61875 -6.61875 18.2375 -6.9375 18.875 C-7.625 20.25 -8.3125 21.625 -9 23 C-10.32 22.67 -11.64 22.34 -13 22 C-12.01 20.02 -11.02 18.04 -10 16 C-10.66 15.67 -11.32 15.34 -12 15 C-11.484375 14.071875 -10.96875 13.14375 -10.4375 12.1875 C-8.59903754 9.07242053 -8.59903754 9.07242053 -10 6 C-8.68 4.68 -7.36 3.36 -6 2 C-5.33333333 4 -4.66666667 6 -4 8 C-1.84622436 5.37801226 -0.59927826 3.35595828 0 0 Z " fill="#7210A3" transform="translate(122,107)"/>
<path d="M0 0 C0.763125 0.20625 1.52625 0.4125 2.3125 0.625 C1.78218862 5.1326467 0.06028884 8.04454788 -2.6875 11.625 C-3.3475 11.625 -4.0075 11.625 -4.6875 11.625 C-5.3475 13.275 -6.0075 14.925 -6.6875 16.625 C-7.3475 16.625 -8.0075 16.625 -8.6875 16.625 C-8.6875 17.285 -8.6875 17.945 -8.6875 18.625 C-9.3475 18.625 -10.0075 18.625 -10.6875 18.625 C-11.0175 19.285 -11.3475 19.945 -11.6875 20.625 C-13.04141472 16.56325585 -12.10819237 13.52670637 -10.6875 9.625 C-5.36447921 -0.74853198 -5.36447921 -0.74853198 0 0 Z " fill="#D86EB4" transform="translate(34.6875,58.375)"/>
<path d="M0 0 C2.07857836 3.11786754 2.48138124 4.86678691 3.0625 8.5 C3.54658193 11.47650375 4.04448148 14.13344445 5 17 C4.34 17 3.68 17 3 17 C3 17.99 3 18.98 3 20 C2.01 20.33 1.02 20.66 0 21 C-1.65 17.7 -3.3 14.4 -5 11 C-5.33 11 -5.66 11 -6 11 C-6 7.7 -6 4.4 -6 1 C-5.67 1.66 -5.34 2.32 -5 3 C-3.02463255 2.65213292 -3.02463255 2.65213292 -1 2 C-0.67 1.34 -0.34 0.68 0 0 Z " fill="#E064BB" transform="translate(84,59)"/>
<path d="M0 0 C3.23585033 3.23585033 3.98945574 7.62097487 5 12 C5.66 12 6.32 12 7 12 C7 8.04 7 4.08 7 0 C12.04311454 7.56467182 11.24695018 17.24698792 11 26 C10.34 26 9.68 26 9 26 C8.67 22.7 8.34 19.4 8 16 C7.34 17.32 6.68 18.64 6 20 C5.34 20.66 4.68 21.32 4 22 C3.01 21.67 2.02 21.34 1 21 C1.18433594 20.34644531 1.36867188 19.69289063 1.55859375 19.01953125 C2.13355367 15.08639834 1.62532377 11.59930002 1.0625 7.6875 C0.96259766 6.94693359 0.86269531 6.20636719 0.75976562 5.44335938 C0.51380065 3.62790363 0.25789626 1.81379929 0 0 Z " fill="#982E9E" transform="translate(113,80)"/>
<path d="M0 0 C0.33 0 0.66 0 1 0 C0.67 4.29 0.34 8.58 0 13 C1.65 12.01 3.3 11.02 5 10 C5.66 10.66 6.32 11.32 7 12 C2.69027374 16.09949571 0.14689273 17.63118644 -6 18 C-6 18.66 -6 19.32 -6 20 C-7.32 20.33 -8.64 20.66 -10 21 C-10 20.34 -10 19.68 -10 19 C-10.99 18.67 -11.98 18.34 -13 18 C-12.45730469 17.64808594 -11.91460937 17.29617187 -11.35546875 16.93359375 C-6.21914818 13.38906982 -3.93980858 10.92719288 -2 5 C-1.4121875 3.5459375 -1.4121875 3.5459375 -0.8125 2.0625 C-0.544375 1.381875 -0.27625 0.70125 0 0 Z " fill="#370965" transform="translate(101,127)"/>
<path d="M0 0 C3.57988134 3.38099904 6.75000559 6.59001095 9 11 C8.25 14.375 8.25 14.375 7 17 C2.47313406 15.63959469 0.74867445 13.79209034 -1.8125 9.875 C-2.41707031 8.96492188 -3.02164063 8.05484375 -3.64453125 7.1171875 C-4.09183594 6.41851562 -4.53914063 5.71984375 -5 5 C-4.67 4.34 -4.34 3.68 -4 3 C-2.35 3.33 -0.7 3.66 1 4 C0.67 2.68 0.34 1.36 0 0 Z " fill="#E875C4" transform="translate(103,50)"/>
<path d="M0 0 C0.61875 0.185625 1.2375 0.37125 1.875 0.5625 C4.04160178 1.23686176 4.04160178 1.23686176 6 0 C7.51528006 4.35643017 6.27140122 7.0306171 4.390625 11.0703125 C3 13 3 13 -0.75 14.0625 C-1.8225 14.041875 -2.895 14.02125 -4 14 C-5.06528748 11.26980214 -5.07998186 10.20701188 -4.00390625 7.421875 C-3.52824219 6.54015625 -3.05257812 5.6584375 -2.5625 4.75 C-2.08941406 3.85796875 -1.61632812 2.9659375 -1.12890625 2.046875 C-0.75636719 1.37140625 -0.38382812 0.6959375 0 0 Z " fill="#E08DC6" transform="translate(83,48)"/>
<path d="M0 0 C0.71484375 2.19921875 0.71484375 2.19921875 1 5 C-0.43359375 7.45703125 -0.43359375 7.45703125 -2.4375 9.8125 C-3.42556641 10.99779297 -3.42556641 10.99779297 -4.43359375 12.20703125 C-5.20896484 13.09455078 -5.20896484 13.09455078 -6 14 C-6.94875 13.814375 -7.8975 13.62875 -8.875 13.4375 C-11.89868793 12.71313368 -11.89868793 12.71313368 -14 14 C-12.87548273 11.0280615 -11.77706209 8.66559313 -10 6 C-7.375 5.3125 -7.375 5.3125 -5 5 C-5 4.34 -5 3.68 -5 3 C-2.46153846 0 -2.46153846 0 0 0 Z " fill="#ED92D0" transform="translate(44,46)"/>
<path d="M0 0 C0.66 0 1.32 0 2 0 C2.268125 0.78375 2.53625 1.5675 2.8125 2.375 C3.84814432 5.28114923 3.84814432 5.28114923 7 7 C6.67 6.01 6.34 5.02 6 4 C6.66 3.34 7.32 2.68 8 2 C9.5 3 9.5 3 11 5 C11.06408115 7.01855632 11.12081975 9.04067607 11.0390625 11.05859375 C10.99622464 13.18763541 11.32708452 14.98125356 12 17 C10.68 17.33 9.36 17.66 8 18 C7.0234375 16.20963542 6.046875 14.41927083 5.0703125 12.62890625 C4.08589976 10.83381685 4.08589976 10.83381685 2 10 C1.3671875 7.71484375 1.3671875 7.71484375 0.875 4.9375 C0.70742188 4.01839844 0.53984375 3.09929687 0.3671875 2.15234375 C0.24601562 1.44207031 0.12484375 0.73179688 0 0 Z " fill="#630F9B" transform="translate(16,108)"/>
<path d="M0 0 C2.97 0.495 2.97 0.495 6 1 C6 2.32 6 3.64 6 5 C6.66 5 7.32 5 8 5 C8.33 7.31 8.66 9.62 9 12 C5.23375329 13.25541557 3.62811066 12.37061958 0 11 C0 7.37 0 3.74 0 0 Z " fill="#9D1FB3" transform="translate(17,95)"/>
<path d="M0 0 C0.59554687 0.22042969 1.19109375 0.44085938 1.8046875 0.66796875 C2.1346875 2.31796875 2.4646875 3.96796875 2.8046875 5.66796875 C-0.1953125 7.66796875 -0.1953125 7.66796875 -3.1953125 7.66796875 C-3.8553125 8.98796875 -4.5153125 10.30796875 -5.1953125 11.66796875 C-5.5253125 11.00796875 -5.8553125 10.34796875 -6.1953125 9.66796875 C-7.1853125 10.16296875 -7.1853125 10.16296875 -8.1953125 10.66796875 C-8.8553125 10.33796875 -9.5153125 10.00796875 -10.1953125 9.66796875 C-8.63343218 5.60707993 -4.82747362 -0.73013391 0 0 Z " fill="#EBB6DC" transform="translate(94.1953125,39.33203125)"/>
<path d="M0 0 C0.66 0 1.32 0 2 0 C1.74476126 1.62752231 1.47025506 3.25203196 1.1875 4.875 C1.03667969 5.77992187 0.88585937 6.68484375 0.73046875 7.6171875 C0 10 0 10 -3 12 C-3.72382467 14.05925139 -3.72382467 14.05925139 -4 16 C-4.66 16 -5.32 16 -6 16 C-6 16.66 -6 17.32 -6 18 C-7.98 18.99 -7.98 18.99 -10 20 C-10 19.34 -10 18.68 -10 18 C-10.99 18 -11.98 18 -13 18 C-12.505 16.515 -12.505 16.515 -12 15 C-11.34 15 -10.68 15 -10 15 C-10 13.68 -10 12.36 -10 11 C-10.66 11 -11.32 11 -12 11 C-12.33 8.69 -12.66 6.38 -13 4 C-10.03134491 6.54456151 -8.6380249 9.48994665 -7 13 C-2.56398034 9.48177751 -1.47966871 5.24609814 0 0 Z " fill="#770EB3" transform="translate(114,96)"/>
<path d="M0 0 C0.99 0 1.98 0 3 0 C3 0.99 3 1.98 3 3 C4.32 2.34 5.64 1.68 7 1 C7.33 1.66 7.66 2.32 8 3 C6.54461637 7.02370768 5.54536915 8.67919462 1.8125 10.875 C0.884375 11.24625 -0.04375 11.6175 -1 12 C-1.99 11.01 -2.98 10.02 -4 9 C-2.80100302 5.9168649 -1.52299523 2.93720508 0 0 Z " fill="#BF42A1" transform="translate(50,78)"/>
<path d="M0 0 C0.66 0 1.32 0 2 0 C3.20250158 2.24307028 4.3869162 4.4928791 5.5625 6.75 C5.90474609 7.38421875 6.24699219 8.0184375 6.59960938 8.671875 C9.06382218 13.45095438 9.06382218 13.45095438 8.71484375 16.453125 C8.47894531 16.96359375 8.24304688 17.4740625 8 18 C7.73445313 17.36191406 7.46890625 16.72382812 7.1953125 16.06640625 C6.84210938 15.24011719 6.48890625 14.41382812 6.125 13.5625 C5.77695313 12.73878906 5.42890625 11.91507813 5.0703125 11.06640625 C4.1755063 8.84253285 4.1755063 8.84253285 2 8 C2 7.34 2 6.68 2 6 C1.01 6.495 1.01 6.495 0 7 C0.33 7.721875 0.66 8.44375 1 9.1875 C2.00603529 12.01697427 2.16977402 14.02895466 2 17 C-0.33405265 14.66594735 -1.31194287 12.49548258 -2.6875 9.5 C-3.37392578 8.03046875 -3.37392578 8.03046875 -4.07421875 6.53125 C-4.37972656 5.6959375 -4.68523437 4.860625 -5 4 C-4.67 3.34 -4.34 2.68 -4 2 C-3.01 2 -2.02 2 -1 2 C-0.67 1.34 -0.34 0.68 0 0 Z " fill="#C959A6" transform="translate(111,63)"/>
<path d="M0 0 C1.14949588 0.78633922 2.29448989 1.57926258 3.4375 2.375 C4.07558594 2.81585938 4.71367188 3.25671875 5.37109375 3.7109375 C7 5 7 5 8 7 C8.99 7.66 9.98 8.32 11 9 C6.92627115 9.98757063 3.18508673 10.38046243 -1 10 C-3.4375 8 -3.4375 8 -5 6 C-4.360625 5.7525 -3.72125 5.505 -3.0625 5.25 C-0.80696091 4.19716567 -0.80696091 4.19716567 -0.37109375 1.921875 C-0.24863281 1.28765625 -0.12617187 0.6534375 0 0 Z " fill="#2A0755" transform="translate(43,137)"/>
<path d="M0 0 C0.66 0 1.32 0 2 0 C1.67 4.95 1.34 9.9 1 15 C3.97 15.495 3.97 15.495 7 16 C7.66 15.34 8.32 14.68 9 14 C9.99 14.99 10.98 15.98 12 17 C11.67 17.66 11.34 18.32 11 19 C9.68 18.67 8.36 18.34 7 18 C7.33 20.31 7.66 22.62 8 25 C7.01 24.67 6.02 24.34 5 24 C4.34 24 3.68 24 3 24 C2.67 21.69 2.34 19.38 2 17 C1.34 17 0.68 17 0 17 C0 11.39 0 5.78 0 0 Z " fill="#8221A3" transform="translate(16,91)"/>
<path d="M0 0 C0.33 0.66 0.66 1.32 1 2 C0.01 2.495 0.01 2.495 -1 3 C-1.65213292 5.02463255 -1.65213292 5.02463255 -2 7 C-1.236875 6.67 -0.47375 6.34 0.3125 6 C3 5 3 5 6 5 C2.51279384 9.3590077 -0.72760915 9.94552183 -6 11 C-6 11.66 -6 12.32 -6 13 C-7.32 12.67 -8.64 12.34 -10 12 C-9.35330586 10.65686601 -8.68096422 9.32608822 -8 8 C-7.566875 7.154375 -7.13375 6.30875 -6.6875 5.4375 C-4.77535192 2.67550832 -2.96121976 1.52062636 0 0 Z " fill="#480C7B" transform="translate(83,124)"/>
<path d="M0 0 C1.50168119 2.26443989 1.7224841 3.84528064 1.91796875 6.54296875 C2.01658203 7.75533203 2.01658203 7.75533203 2.1171875 8.9921875 C2.15457031 9.60707031 2.19195312 10.22195312 2.23046875 10.85546875 C1.24046875 10.52546875 0.25046875 10.19546875 -0.76953125 9.85546875 C-1.09953125 10.51546875 -1.42953125 11.17546875 -1.76953125 11.85546875 C-2.42953125 11.85546875 -3.08953125 11.85546875 -3.76953125 11.85546875 C-4.75953125 7.89546875 -5.74953125 3.93546875 -6.76953125 -0.14453125 C-1.76953125 -1.14453125 -1.76953125 -1.14453125 0 0 Z " fill="#E89ACD" transform="translate(57.76953125,49.14453125)"/>
<path d="M0 0 C-6.53820443 5.35303142 -12.72546487 5.86125017 -21 6 C-21 5.01 -21 4.02 -21 3 C-20.05125 2.690625 -19.1025 2.38125 -18.125 2.0625 C-15.13919592 1.12605258 -15.13919592 1.12605258 -13 0 C-12.01 0.33 -11.02 0.66 -10 1 C-10 1.66 -10 2.32 -10 3 C-8.68 2.67 -7.36 2.34 -6 2 C-6 1.34 -6 0.68 -6 0 C-2.25 -1.125 -2.25 -1.125 0 0 Z " fill="#26044D" transform="translate(101,145)"/>
<path d="M0 0 C0.33 1.32 0.66 2.64 1 4 C-0.670625 4.2165625 -0.670625 4.2165625 -2.375 4.4375 C-5.82142047 4.78372035 -5.82142047 4.78372035 -8 6 C-8.33 6.66 -8.66 7.32 -9 8 C-10.32 7.67 -11.64 7.34 -13 7 C-12.67 5.68 -12.34 4.36 -12 3 C-11.34 3 -10.68 3 -10 3 C-10 2.34 -10 1.68 -10 1 C-6.21812119 -0.83691257 -4.05431692 -1.15837626 0 0 Z " fill="#5F079F" transform="translate(45,119)"/>
<path d="M0 0 C0 0.66 0 1.32 0 2 C3.3 2 6.6 2 10 2 C10 3.32 10 4.64 10 6 C10.66 6 11.32 6 12 6 C11.67 7.32 11.34 8.64 11 10 C9.68 9.67 8.36 9.34 7 9 C6.67 7.35 6.34 5.7 6 4 C5.07767578 4.14308594 5.07767578 4.14308594 4.13671875 4.2890625 C3.32847656 4.39992188 2.52023438 4.51078125 1.6875 4.625 C0.88699219 4.74101563 0.08648437 4.85703125 -0.73828125 4.9765625 C-3 5 -3 5 -6 3 C-5.34 3 -4.68 3 -4 3 C-4 2.34 -4 1.68 -4 1 C-2 0 -2 0 0 0 Z " fill="#610C9E" transform="translate(96,119)"/>
<path d="M0 0 C0.33 0.66 0.66 1.32 1 2 C0.67 2.99 0.34 3.98 0 5 C-0.95814168 13.86965443 0.72231313 20.23905382 5 28 C4.01 28.33 3.02 28.66 2 29 C2 28.34 2 27.68 2 27 C1.34 27 0.68 27 0 27 C-0.33 24.36 -0.66 21.72 -1 19 C-1.66 19 -2.32 19 -3 19 C-3.31461385 11.90370975 -3.44572039 6.31715405 0 0 Z " fill="#872B8E" transform="translate(26,81)"/>
<path d="M0 0 C0.66 0.33 1.32 0.66 2 1 C1.34 5.29 0.68 9.58 0 14 C-1.65 14 -3.3 14 -5 14 C-5 12.35 -5 10.7 -5 9 C-5.66 8.67 -6.32 8.34 -7 8 C-6.34 8 -5.68 8 -5 8 C-5 7.01 -5 6.02 -5 5 C-2.5 2.3125 -2.5 2.3125 0 0 Z " fill="#C02FB4" transform="translate(23,82)"/>
<path d="M0 0 C2.66315194 2.66315194 2.94426493 4.65344068 3.09765625 8.359375 C3.08605469 9.14828125 3.07445312 9.9371875 3.0625 10.75 C3.05347656 11.54921875 3.04445313 12.3484375 3.03515625 13.171875 C3.01775391 14.07679687 3.01775391 14.07679687 3 15 C2.401875 14.814375 1.80375 14.62875 1.1875 14.4375 C-1.16408762 13.77906313 -1.16408762 13.77906313 -4 15 C-4.25 8.375 -4.25 8.375 -2 5 C-1.34 5.33 -0.68 5.66 0 6 C0 4.02 0 2.04 0 0 Z " fill="#D972B9" transform="translate(59,53)"/>
<path d="M0 0 C0.66 0 1.32 0 2 0 C0.96232949 6.06732052 -0.33961901 11.4373852 -3 17 C-3.99 17 -4.98 17 -6 17 C-6.309375 17.61875 -6.61875 18.2375 -6.9375 18.875 C-7.625 20.25 -8.3125 21.625 -9 23 C-10.32 22.67 -11.64 22.34 -13 22 C-12.01 20.68 -11.02 19.36 -10 18 C-9.34 18.33 -8.68 18.66 -8 19 C-7.566875 18.13375 -7.566875 18.13375 -7.125 17.25 C-6.44582055 15.8916411 -5.76022164 14.53642851 -5.0625 13.1875 C-2.99254622 8.92583045 -0.93377282 4.66886409 0 0 Z " fill="#5E0999" transform="translate(122,107)"/>
<path d="M0 0 C1.65 0 3.3 0 5 0 C5.33 0.99 5.66 1.98 6 3 C6.350625 3.66 6.70125 4.32 7.0625 5 C8 7 8 7 8 10 C8.66 10 9.32 10 10 10 C10.33 11.65 10.66 13.3 11 15 C10.01 15.33 9.02 15.66 8 16 C6.99515796 14.04414675 5.99626195 12.08523763 5 10.125 C4.443125 9.03445312 3.88625 7.94390625 3.3125 6.8203125 C2 4 2 4 2 2 C1.34 2 0.68 2 0 2 C0 1.34 0 0.68 0 0 Z " fill="#8417B5" transform="translate(94,97)"/>
<path d="M0 0 C0.33 0 0.66 0 1 0 C1.02712066 1.43739513 1.04645067 2.87493863 1.0625 4.3125 C1.07410156 5.11300781 1.08570312 5.91351563 1.09765625 6.73828125 C1 9 1 9 0 12 C-1.98 12 -3.96 12 -6 12 C-6.625 10.1875 -6.625 10.1875 -7 8 C-6.34 7.01 -5.68 6.02 -5 5 C-4.01 5 -3.02 5 -2 5 C-1.34 3.35 -0.68 1.7 0 0 Z " fill="#A21BBB" transform="translate(121,95)"/>
<path d="M0 0 C3.26737303 3.26737303 3.95672896 6.83168198 4.125 11.375 C4.08375 12.24125 4.0425 13.1075 4 14 C4.99 14 5.98 14 7 14 C6.25 19.75 6.25 19.75 4 22 C3.01 21.67 2.02 21.34 1 21 C1.18433594 20.34644531 1.36867188 19.69289063 1.55859375 19.01953125 C2.13355367 15.08639834 1.62532377 11.59930002 1.0625 7.6875 C0.96259766 6.94693359 0.86269531 6.20636719 0.75976562 5.44335938 C0.51380065 3.62790363 0.25789626 1.81379929 0 0 Z " fill="#A127AD" transform="translate(113,80)"/>
<path d="M0 0 C0.66 1.98 1.32 3.96 2 6 C1.34 6 0.68 6 0 6 C0 6.99 0 7.98 0 9 C-0.99 9.33 -1.98 9.66 -3 10 C-7 3.25 -7 3.25 -7 1 C-4.53721199 -0.231394 -2.7204945 -0.07159196 0 0 Z " fill="#CE46AF" transform="translate(87,70)"/>
<path d="M0 0 C0.66 0.33 1.32 0.66 2 1 C-0.99481865 5.22797927 -0.99481865 5.22797927 -3 7 C-6.3125 7.375 -6.3125 7.375 -9 7 C-9.33 7.99 -9.66 8.98 -10 10 C-10.66 9.67 -11.32 9.34 -12 9 C-12 7.02 -12 5.04 -12 3 C-10 3 -8 3 -6 3 C-6 3.66 -6 4.32 -6 5 C-5.01 5 -4.02 5 -3 5 C-3 4.01 -3 3.02 -3 2 C-2.01 2 -1.02 2 0 2 C0 1.34 0 0.68 0 0 Z " fill="#480673" transform="translate(112,131)"/>
<path d="M0 0 C0.33 0.66 0.66 1.32 1 2 C1.99 2 2.98 2 4 2 C4.33 1.34 4.66 0.68 5 0 C5 0.99 5 1.98 5 3 C6.32 3.33 7.64 3.66 9 4 C9 5.98 9 7.96 9 10 C6.84174363 9.03250577 5.2099391 8.21906689 3.5625 6.5 C1.5843405 4.60096688 -0.43558782 3.90100969 -3 3 C-2.01 2.67 -1.02 2.34 0 2 C0 1.34 0 0.68 0 0 Z " fill="#47087B" transform="translate(57,129)"/>
<path d="M0 0 C-1.875 4.75 -1.875 4.75 -3 7 C-3.66 7 -4.32 7 -5 7 C-5 7.66 -5 8.32 -5 9 C-5.66 9 -6.32 9 -7 9 C-7.33 9.66 -7.66 10.32 -8 11 C-9.17841928 7.46474216 -8.91399027 5.5797952 -8 2 C-4.77208445 -0.1519437 -3.71599191 -0.20086443 0 0 Z " fill="#E03FB7" transform="translate(31,68)"/>
<path d="M0 0 C1.98 0 3.96 0 6 0 C3.83639731 5.08869684 2.30721977 8.64123566 -3 11 C-1.125 3.375 -1.125 3.375 0 0 Z " fill="#A125B3" transform="translate(42,94)"/>
<path d="M0 0 C2.875 0.625 2.875 0.625 6 2 C7.50420193 5.21352231 8 7.45930077 8 11 C6.25 10.875 6.25 10.875 4 10 C1.06644827 6.33306034 0 4.76869466 0 0 Z " fill="#C02EB5" transform="translate(87,84)"/>
<path d="M0 0 C0.66 0.33 1.32 0.66 2 1 C1.319375 1.66 0.63875 2.32 -0.0625 3 C-3.02800333 5.94015715 -5.6844263 9.11790677 -8.3515625 12.328125 C-10 14 -10 14 -13 15 C-13 14.01 -13 13.02 -13 12 C-13.66 12 -14.32 12 -15 12 C-14.67 11.34 -14.34 10.68 -14 10 C-13.030625 9.896875 -12.06125 9.79375 -11.0625 9.6875 C-9.5465625 9.3471875 -9.5465625 9.3471875 -8 9 C-6.54708727 6.53744315 -6.54708727 6.53744315 -6 4 C-5.34 4 -4.68 4 -4 4 C-4 3.34 -4 2.68 -4 2 C-2.125 0.9375 -2.125 0.9375 0 0 Z " fill="#310759" transform="translate(81,133)"/>
<path d="M0 0 C1.65 0.33 3.3 0.66 5 1 C5 4.96 5 8.92 5 13 C4.01 12.67 3.02 12.34 2 12 C2 10 2 10 3 9 C2.01 9 1.02 9 0 9 C-0.33 6.69 -0.66 4.38 -1 2 C0.32 3.32 1.64 4.64 3 6 C2.01 4.02 1.02 2.04 0 0 Z " fill="#590587" transform="translate(27,115)"/>
<path d="M0 0 C2.64 0 5.28 0 8 0 C8 0.99 8 1.98 8 3 C6.35 3.33 4.7 3.66 3 4 C3 4.66 3 5.32 3 6 C2.01 6.33 1.02 6.66 0 7 C0 4.69 0 2.38 0 0 Z " fill="#7208B4" transform="translate(32,116)"/>
<path d="M0 0 C0.639375 0.165 1.27875 0.33 1.9375 0.5 C4.04582216 1.24598544 4.04582216 1.24598544 6 0 C5.44299928 3.23060419 4.70784878 5.0658223 2 7 C-0.6875 7.1875 -0.6875 7.1875 -3 7 C-1.125 1.125 -1.125 1.125 0 0 Z " fill="#EF96D2" transform="translate(83,48)"/>
<path d="M0 0 C1.32 0.99 2.64 1.98 4 3 C3.67 4.32 3.34 5.64 3 7 C2.01 7 1.02 7 0 7 C-0.33 7.66 -0.66 8.32 -1 9 C-2.65 7.02 -4.3 5.04 -6 3 C-4.02 2.67 -2.04 2.34 0 2 C0 1.34 0 0.68 0 0 Z " fill="#E5A9D0" transform="translate(52,44)"/>
<path d="M0 0 C0.33 1.32 0.66 2.64 1 4 C-4.625 9 -4.625 9 -8 9 C-8.5534764 6.92446352 -9 5.15634036 -9 3 C-8.34 3 -7.68 3 -7 3 C-6.67 3.33 -6.34 3.66 -6 4 C-3.53199953 2.84826645 -1.95216435 1.95216435 0 0 Z " fill="#750AB7" transform="translate(111,111)"/>
<path d="M0 0 C1.98362069 2.91708924 1.9876191 4.12380904 1.625 7.75 C1.41875 8.8225 1.2125 9.895 1 11 C0.01 11.33 -0.98 11.66 -2 12 C-2.144375 10.906875 -2.28875 9.81375 -2.4375 8.6875 C-2.88288104 5.06877013 -2.88288104 5.06877013 -4 2 C-2.68 2.33 -1.36 2.66 0 3 C0 2.01 0 1.02 0 0 Z " fill="#C12EB1" transform="translate(119,81)"/>
<path d="M0 0 C0.66 0.33 1.32 0.66 2 1 C2 2.65 2 4.3 2 6 C-0.31 6.66 -2.62 7.32 -5 8 C-5.33 7.01 -5.66 6.02 -6 5 C-5.34 4.34 -4.68 3.68 -4 3 C-3.67 2.34 -3.34 1.68 -3 1 C-2.01 0.67 -1.02 0.34 0 0 Z " fill="#F5B1E1" transform="translate(95,40)"/>
<path d="M0 0 C0.99 0 1.98 0 3 0 C3.125 2.375 3.125 2.375 3 5 C2.34 5.66 1.68 6.32 1 7 C-0.32 7 -1.64 7 -3 7 C-2.67 5.35 -2.34 3.7 -2 2 C-1.34 2 -0.68 2 0 2 C0 1.34 0 0.68 0 0 Z " fill="#570A8F" transform="translate(84,124)"/>
<path d="M0 0 C1.67542976 0.28604898 3.34385343 0.61781233 5 1 C2.03 4.96 2.03 4.96 -1 9 C-1.66 8.67 -2.32 8.34 -3 8 C-1.125 1.125 -1.125 1.125 0 0 Z " fill="#EB71C6" transform="translate(32,58)"/>
<path d="M0 0 C3.66881155 0.70554068 6.70450534 2.27735506 10 4 C10 4.33 10 4.66 10 5 C5.545 5.495 5.545 5.495 1 6 C0.67 4.02 0.34 2.04 0 0 Z " fill="#300560" transform="translate(44,141)"/>
<path d="M0 0 C0.33 1.32 0.66 2.64 1 4 C-2 5 -2 5 -4.6875 3.6875 C-5.450625 3.130625 -6.21375 2.57375 -7 2 C-7 1.34 -7 0.68 -7 0 C-4.3333581 -1.33332095 -2.83319697 -0.67102033 0 0 Z " fill="#650EA6" transform="translate(45,119)"/>
<path d="M0 0 C1.38603359 4.15810078 -0.0168304 6.06285087 -1.80859375 9.90234375 C-3.17484102 12.30783484 -4.55607168 13.69075268 -7 15 C-5.45454854 9.52067211 -2.84456788 4.88570819 0 0 Z " fill="#842B96" transform="translate(41,94)"/>
<path d="M0 0 C1.32 0.66 2.64 1.32 4 2 C3.25 3.9375 3.25 3.9375 2 6 C-0.125 6.75 -0.125 6.75 -2 7 C-2.33 5.35 -2.66 3.7 -3 2 C-2.01 1.34 -1.02 0.68 0 0 Z " fill="#E351BC" transform="translate(58,66)"/>
<path d="M0 0 C1.65 1.65 3.3 3.3 5 5 C4.67 5.66 4.34 6.32 4 7 C2.68 6.67 1.36 6.34 0 6 C-0.33 7.32 -0.66 8.64 -1 10 C-2.32 8.35 -3.64 6.7 -5 5 C-4.67 4.34 -4.34 3.68 -4 3 C-2.35 3.33 -0.7 3.66 1 4 C0.67 2.68 0.34 1.36 0 0 Z " fill="#DC91C2" transform="translate(103,50)"/>
<path d="M0 0 C1.60875 0.5878125 1.60875 0.5878125 3.25 1.1875 C1.93 1.5175 0.61 1.8475 -0.75 2.1875 C-0.75 2.8475 -0.75 3.5075 -0.75 4.1875 C-2.07 4.5175 -3.39 4.8475 -4.75 5.1875 C-4.75 4.5275 -4.75 3.8675 -4.75 3.1875 C-5.74 2.8575 -6.73 2.5275 -7.75 2.1875 C-4.89394414 -0.7827981 -4.16493458 -0.90240249 0 0 Z " fill="#30065B" transform="translate(95.75,142.8125)"/>
<path d="M0 0 C3.63 0 7.26 0 11 0 C7.67309544 3.32690456 6.52906299 3.62257808 2 4 C1.01 3.67 0.02 3.34 -1 3 C-0.67 2.01 -0.34 1.02 0 0 Z " fill="#500E8A" transform="translate(89,123)"/>
<path d="M0 0 C2.475 0.99 2.475 0.99 5 2 C4.67 2.99 4.34 3.98 4 5 C-1.53846154 5.36923077 -1.53846154 5.36923077 -3.875 3.5 C-4.24625 3.005 -4.6175 2.51 -5 2 C-3.35 1.67 -1.7 1.34 0 1 C0 0.67 0 0.34 0 0 Z " fill="#500C8C" transform="translate(45,121)"/>
<path d="M0 0 C0.66 0 1.32 0 2 0 C1.74476126 1.62752231 1.47025506 3.25203196 1.1875 4.875 C1.03667969 5.77992187 0.88585937 6.68484375 0.73046875 7.6171875 C0 10 0 10 -3 12 C-3.33 12.99 -3.66 13.98 -4 15 C-4.99 14.67 -5.98 14.34 -7 14 C-6.21625 12.989375 -5.4325 11.97875 -4.625 10.9375 C-2.05758573 7.37366716 -0.95732243 4.26443627 0 0 Z " fill="#782290" transform="translate(114,96)"/>
<path d="M0 0 C0.33 0.99 0.66 1.98 1 3 C3.01508358 3.73323796 3.01508358 3.73323796 5 4 C2.6875 6.0625 2.6875 6.0625 0 8 C-0.99 7.67 -1.98 7.34 -3 7 C-3.6875 4.9375 -3.6875 4.9375 -4 3 C-3.01 3.33 -2.02 3.66 -1 4 C-0.67 2.68 -0.34 1.36 0 0 Z " fill="#C32FB4" transform="translate(50,82)"/>
<path d="M0 0 C0.66 0 1.32 0 2 0 C2 0.66 2 1.32 2 2 C2.99 2.33 3.98 2.66 5 3 C5.33 3.99 5.66 4.98 6 6 C4.02 6.99 4.02 6.99 2 8 C0.4375 5.6875 0.4375 5.6875 -1 3 C-0.67 2.01 -0.34 1.02 0 0 Z " fill="#E345BB" transform="translate(111,69)"/>
<path d="M0 0 C0.66 0 1.32 0 2 0 C2.67154933 1.28913487 3.33708859 2.58140204 4 3.875 C4.37125 4.59429687 4.7425 5.31359375 5.125 6.0546875 C6 8 6 8 6 10 C5.01 10.33 4.02 10.66 3 11 C2.49384702 9.73160474 1.99530901 8.46016898 1.5 7.1875 C1.2215625 6.47980469 0.943125 5.77210937 0.65625 5.04296875 C0 3 0 3 0 0 Z " fill="#B53F99" transform="translate(87,76)"/>
<path d="M0 0 C1.32 1.32 2.64 2.64 4 4 C3.38125 4.28875 2.7625 4.5775 2.125 4.875 C-0.13325765 5.93720042 -0.13325765 5.93720042 -2 8 C-3.34882814 5.30234372 -2.80338265 3.84835666 -2 1 C-1.34 0.67 -0.68 0.34 0 0 Z " fill="#D63CB2" transform="translate(55,74)"/>
<path d="M0 0 C0.33 0.66 0.66 1.32 1 2 C3.02463255 2.65213292 3.02463255 2.65213292 5 3 C5.33 2.34 5.66 1.68 6 1 C6.66 1.33 7.32 1.66 8 2 C6.3125 4.0625 6.3125 4.0625 4 6 C1.375 5.6875 1.375 5.6875 -1 5 C-1.99 5.495 -1.99 5.495 -3 6 C-1.125 1.125 -1.125 1.125 0 0 Z " fill="#DE88C2" transform="translate(33,54)"/>
<path d="M0 0 C3.84766567 0.76953313 5.2397053 2.2397053 8 5 C5.6875 5.625 5.6875 5.625 3 6 C2.01 5.34 1.02 4.68 0 4 C0 2.68 0 1.36 0 0 Z " fill="#E897CF" transform="translate(97,49)"/>
<path d="M0 0 C1.65 0 3.3 0 5 0 C5.33 1.65 5.66 3.3 6 5 C5.01 4.67 4.02 4.34 3 4 C2.67 4.66 2.34 5.32 2 6 C1.34 6 0.68 6 0 6 C0 4.02 0 2.04 0 0 Z " fill="#E684C8" transform="translate(54,55)"/>
<path d="M0 0 C-0.66 1.32 -1.32 2.64 -2 4 C-4.375 4.1875 -4.375 4.1875 -7 4 C-7.66 3.01 -8.32 2.02 -9 1 C-5.94152152 0.45627049 -3.11227195 0 0 0 Z " fill="#340566" transform="translate(43,139)"/>
<path d="M0 0 C0.66 0.66 1.32 1.32 2 2 C-0.93828597 4.50298434 -3.17902761 5.46930939 -7 6 C-7.66 5.01 -8.32 4.02 -9 3 C-6 2 -6 2 -3.375 1.5 C-1.05538548 1.23747474 -1.05538548 1.23747474 0 0 Z " fill="#450A6D" transform="translate(87,128)"/>
<path d="M0 0 C3.63 1.98 7.26 3.96 11 6 C10.34 6.66 9.68 7.32 9 8 C2.21917808 4.83561644 2.21917808 4.83561644 0 2 C0 1.34 0 0.68 0 0 Z " fill="#50147A" transform="translate(42,116)"/>
<path d="M0 0 C0.66 1.32 1.32 2.64 2 4 C1.01 5.485 1.01 5.485 0 7 C-0.16699232 10.12521833 -0.16699232 10.12521833 0 13 C-0.66 13 -1.32 13 -2 13 C-2 12.01 -2 11.02 -2 10 C-2.66 9.67 -3.32 9.34 -4 9 C-3.2884375 7.88625 -3.2884375 7.88625 -2.5625 6.75 C-1.22130673 4.38949985 -0.487688 2.63351523 0 0 Z " fill="#500BA3" transform="translate(114,113)"/>
<path d="M0 0 C2.0625 0.4375 2.0625 0.4375 4 1 C4 1.66 4 2.32 4 3 C4.66 2.67 5.32 2.34 6 2 C6 2.99 6 3.98 6 5 C4.02 5 2.04 5 0 5 C-0.5625 3.0625 -0.5625 3.0625 -1 1 C-0.67 0.67 -0.34 0.34 0 0 Z " fill="#9815B9" transform="translate(115,102)"/>
<path d="M0 0 C2.34601486 2.13274079 3.86264449 4.02537789 5 7 C5.125 9.75 5.125 9.75 5 12 C3 9 3 9 3 7 C2.34 7 1.68 7 1 7 C0.67 4.69 0.34 2.38 0 0 Z " fill="#7C2492" transform="translate(101,100)"/>
<path d="M0 0 C0.77321882 2.98241547 1.41196203 5.97580475 2 9 C1.360625 9.103125 0.72125 9.20625 0.0625 9.3125 C-0.9584375 9.6528125 -0.9584375 9.6528125 -2 10 C-2.33 10.99 -2.66 11.98 -3 13 C-2.45144652 8.428721 -1.58255197 4.32564205 0 0 Z " fill="#B7409F" transform="translate(20,77)"/>
<path d="M0 0 C1.8125 1.3125 1.8125 1.3125 2.5625 3.4375 C2.68625 4.365625 2.68625 4.365625 2.8125 5.3125 C-0.64675163 4.0633258 -3.33443203 2.63722205 -6.1875 0.3125 C-3.74242066 -0.56074262 -2.51049678 -0.78901327 0 0 Z " fill="#460974" transform="translate(51.1875,125.6875)"/>
<path d="M0 0 C0.66 0.33 1.32 0.66 2 1 C2.625 3.0625 2.625 3.0625 3 5 C1.68 5.33 0.36 5.66 -1 6 C-1.66 4.35 -2.32 2.7 -3 1 C-2.01 0.67 -1.02 0.34 0 0 Z " fill="#6707A9" transform="translate(25,120)"/>
<path d="M0 0 C2.475 0.495 2.475 0.495 5 1 C5.103125 1.639375 5.20625 2.27875 5.3125 2.9375 C5.539375 3.618125 5.76625 4.29875 6 5 C6.99 5.33 7.98 5.66 9 6 C8.01 6.495 8.01 6.495 7 7 C3.00003714 5.66667905 2.16217663 3.5042173 0 0 Z " fill="#780FA8" transform="translate(23,109)"/>
<path d="M0 0 C0.66 0 1.32 0 2 0 C2.33 1.98 2.66 3.96 3 6 C1.35 6 -0.3 6 -2 6 C-2 2 -2 2 0 0 Z " fill="#B325B4" transform="translate(20,90)"/>
<path d="M0 0 C0.99 0.33 1.98 0.66 3 1 C3 2.98 3 4.96 3 7 C2.01 7.495 2.01 7.495 1 8 C-2 3.25 -2 3.25 -2 1 C-1.34 0.67 -0.68 0.34 0 0 Z " fill="#E045B3" transform="translate(82,70)"/>
<path d="M0 0 C0.99 0 1.98 0 3 0 C2.67 1.65 2.34 3.3 2 5 C1.01 5.33 0.02 5.66 -1 6 C-1.625 4.125 -1.625 4.125 -2 2 C-1.34 1.34 -0.68 0.68 0 0 Z " fill="#6B09AB" transform="translate(115,118)"/>
<path d="M0 0 C0.66 0 1.32 0 2 0 C1.71682074 1.60568666 1.42312209 3.20952047 1.125 4.8125 C0.96257812 5.70582031 0.80015625 6.59914063 0.6328125 7.51953125 C0 10 0 10 -2 13 C-2.19294408 8.17639811 -1.75747614 4.50353262 0 0 Z " fill="#651989" transform="translate(122,107)"/>
<path d="M0 0 C0.99 0.33 1.98 0.66 3 1 C2.67 2.65 2.34 4.3 2 6 C0.68 5.67 -0.64 5.34 -2 5 C-2 3.68 -2 2.36 -2 1 C-1.34 0.67 -0.68 0.34 0 0 Z " fill="#9913C1" transform="translate(22,102)"/>
<path d="M0 0 C1.65 0 3.3 0 5 0 C6 3 6 3 6 6 C5.01 6 4.02 6 3 6 C2.67 4.68 2.34 3.36 2 2 C1.34 2 0.68 2 0 2 C0 1.34 0 0.68 0 0 Z " fill="#9D25B1" transform="translate(94,97)"/>
<path d="M0 0 C1.2065625 0.0309375 1.2065625 0.0309375 2.4375 0.0625 C1.7775 1.7125 1.1175 3.3625 0.4375 5.0625 C-0.5525 5.0625 -1.5425 5.0625 -2.5625 5.0625 C-3.125 3.125 -3.125 3.125 -3.5625 1.0625 C-2.5625 0.0625 -2.5625 0.0625 0 0 Z " fill="#E150B6" transform="translate(28.5625,67.9375)"/>
<path d="M0 0 C1.4606285 2.64738916 2 3.89448334 2 7 C0.125 6.8125 0.125 6.8125 -2 6 C-3.25 3.4375 -3.25 3.4375 -4 1 C-2.02 1.99 -2.02 1.99 0 3 C0 2.01 0 1.02 0 0 Z " fill="#B12DAE" transform="translate(93,88)"/>
<path d="M0 0 C2.38432398 2.38432398 3.09773429 3.73796244 4 7 C3.87265795 10.03583453 3.4833588 13.00186905 3 16 C2.67 16 2.34 16 2 16 C1.34 10.72 0.68 5.44 0 0 Z " fill="#9E4495" transform="translate(113,80)"/>
<path d="M0 0 C0.33 0 0.66 0 1 0 C1.309375 1.134375 1.61875 2.26875 1.9375 3.4375 C2.62924531 6.78775099 2.62924531 6.78775099 4 8 C4.04063832 9.66617115 4.042721 11.33388095 4 13 C1.0396355 9.63594943 -0.03380551 6.34787522 -1 2 C-0.67 1.34 -0.34 0.68 0 0 Z " fill="#C4559C" transform="translate(79,68)"/>
<path d="M0 0 C1.32 1.32 2.64 2.64 4 4 C4.33 3.01 4.66 2.02 5 1 C5 2.65 5 4.3 5 6 C3.68 6.33 2.36 6.66 1 7 C0.67 4.69 0.34 2.38 0 0 Z " fill="#470A7D" transform="translate(26,117)"/>
<path d="M0 0 C0.66 0 1.32 0 2 0 C1.835 1.093125 1.67 2.18625 1.5 3.3125 C0.93281816 6.87525873 0.93281816 6.87525873 1 10 C0.01 9.01 -0.98 8.02 -2 7 C-1.34 4.69 -0.68 2.38 0 0 Z " fill="#6A1E90" transform="translate(40,108)"/>
<path d="M0 0 C1.32 0.99 2.64 1.98 4 3 C3.67 3.66 3.34 4.32 3 5 C1.02 5 -0.96 5 -3 5 C-3.33 4.01 -3.66 3.02 -4 2 C-3.01 2 -2.02 2 -1 2 C-0.67 1.34 -0.34 0.68 0 0 Z " fill="#8A15B5" transform="translate(24,105)"/>
<path d="M0 0 C4.92307692 4.30769231 4.92307692 4.30769231 5.3125 7.8125 C5.209375 8.534375 5.10625 9.25625 5 10 C3 9 3 9 2.1484375 6.93359375 C1.89320312 6.10988281 1.63796875 5.28617187 1.375 4.4375 C1.11460938 3.61121094 0.85421875 2.78492187 0.5859375 1.93359375 C0.39257812 1.29550781 0.19921875 0.65742187 0 0 Z " fill="#662084" transform="translate(96,104)"/>
<path d="M0 0 C0.33 1.32 0.66 2.64 1 4 C-0.98 4.33 -2.96 4.66 -5 5 C-5 4.01 -5 3.02 -5 2 C-3.35 1.34 -1.7 0.68 0 0 Z " fill="#DA59B6" transform="translate(85,66)"/>
<path d="M0 0 C0.66 0.33 1.32 0.66 2 1 C2.625 3.5625 2.625 3.5625 3 6 C1.35 6 -0.3 6 -2 6 C-1.49396008 3.83125748 -1.00016187 2.00032373 0 0 Z " fill="#E677CA" transform="translate(81,56)"/>
<path d="M0 0 C0.66 0 1.32 0 2 0 C2.33 1.65 2.66 3.3 3 5 C2.01 5.66 1.02 6.32 0 7 C-1.125 2.25 -1.125 2.25 0 0 Z " fill="#E5A3CE" transform="translate(42,46)"/>
<path d="M0 0 C1.98 0.99 1.98 0.99 4 2 C3.67 3.32 3.34 4.64 3 6 C2.34 6 1.68 6 1 6 C0.67 4.02 0.34 2.04 0 0 Z " fill="#911AB4" transform="translate(98,102)"/>
<path d="M0 0 C1.875 0.1875 1.875 0.1875 4 1 C5.25 3.5625 5.25 3.5625 6 6 C3.5625 5.25 3.5625 5.25 1 4 C0.1875 1.875 0.1875 1.875 0 0 Z " fill="#800DBC" transform="translate(28,110)"/>
<path d="M0 0 C1.32 1.32 2.64 2.64 4 4 C3.67 4.99 3.34 5.98 3 7 C2.01 6.67 1.02 6.34 0 6 C0 4.02 0 2.04 0 0 Z " fill="#DC7BB9" transform="translate(108,57)"/>
<path d="M0 0 C0.99 0.66 1.98 1.32 3 2 C2.01 2.33 1.02 2.66 0 3 C-0.73323796 5.01508358 -0.73323796 5.01508358 -1 7 C-1.66 7 -2.32 7 -3 7 C-1.125 1.125 -1.125 1.125 0 0 Z " fill="#E29ECE" transform="translate(83,48)"/>
<path d="M0 0 C0.99 0 1.98 0 3 0 C3.66 1.65 4.32 3.3 5 5 C4.01 5.33 3.02 5.66 2 6 C0 3 0 3 0 0 Z " fill="#F4BDE4" transform="translate(45,40)"/>
</svg>
